<?xml version="1.0" standalone="no"?>
<!DOCTYPE svg PUBLIC "-//W3C//DTD SVG 20010904//EN"
 "http://www.w3.org/TR/2001/REC-SVG-20010904/DTD/svg10.dtd">
<svg version="1.0" xmlns="http://www.w3.org/2000/svg"
 width="1600.000000pt" height="1600.000000pt" viewBox="0 0 1600.000000 1600.000000"
 preserveAspectRatio="xMidYMid meet">
<metadata>
Created by potrace 1.11, written by Peter Selinger 2001-2013
</metadata>
<g transform="translate(0.000000,1600.000000) scale(0.100000,-0.100000)"
fill="#000000" stroke="none">
<path d="M7928 14335 c-2 -2 -32 -6 -68 -9 -367 -38 -699 -298 -824 -646 -78
-214 -72 -417 19 -689 14 -42 25 -85 25 -96 0 -11 11 -33 25 -48 48 -51 255
-510 363 -802 36 -99 104 -320 116 -378 3 -12 12 -58 22 -102 9 -44 18 -142
20 -217 4 -147 -5 -197 -51 -294 -38 -78 -60 -93 -169 -114 -375 -73 -791
-248 -1089 -457 l-79 -55 -63 5 c-215 19 -443 223 -600 536 -48 95 -110 269
-121 336 -3 22 -9 58 -13 81 -14 76 -6 205 19 283 18 60 23 98 23 195 1 148
-8 213 -45 326 -113 350 -426 613 -799 671 -75 11 -259 8 -343 -6 -72 -13
-210 -63 -286 -105 -509 -280 -669 -904 -353 -1379 111 -167 270 -299 472
-393 149 -69 146 -67 251 -127 238 -136 474 -320 670 -526 217 -227 356 -475
361 -642 0 -32 6 -75 12 -95 9 -34 7 -42 -30 -105 -22 -37 -51 -90 -65 -118
-94 -189 -219 -316 -405 -409 -75 -38 -206 -79 -293 -93 -70 -10 -355 -11
-440 0 -192 24 -465 109 -660 207 -122 61 -194 112 -280 199 -128 129 -286
190 -495 192 -87 0 -132 -6 -215 -31 -234 -71 -430 -262 -507 -495 -23 -68
-27 -97 -27 -200 0 -166 36 -280 129 -410 217 -304 603 -405 960 -250 17 7 55
24 85 38 114 52 273 92 445 112 69 8 295 8 380 0 100 -9 299 -50 396 -81 127
-40 318 -136 375 -189 6 -5 26 -24 45 -40 85 -75 169 -215 169 -282 0 -18 11
-58 25 -90 24 -53 36 -95 48 -163 3 -14 20 -79 38 -145 21 -77 33 -145 34
-188 l1 -69 -46 -39 c-69 -61 -222 -129 -340 -153 -14 -3 -34 -7 -45 -9 -107
-24 -354 -25 -485 -2 -14 3 -38 7 -55 10 -112 19 -157 38 -212 92 -102 99
-242 145 -448 146 -291 1 -523 -94 -730 -300 -217 -216 -322 -557 -260 -844 9
-41 18 -83 20 -94 3 -11 21 -58 40 -104 124 -294 391 -511 715 -581 106 -23
339 -21 441 4 247 60 429 189 608 430 91 123 112 147 236 271 267 268 578 446
835 480 125 16 111 21 178 -69 33 -44 69 -90 79 -101 10 -11 35 -40 55 -65 20
-25 62 -72 92 -105 139 -150 218 -439 174 -640 -58 -266 -294 -512 -653 -680
-145 -68 -187 -82 -266 -89 -216 -20 -409 -160 -509 -371 -167 -350 -20 -759
343 -953 57 -31 64 -33 170 -62 84 -23 227 -24 317 -3 141 32 274 106 377 211
132 135 202 291 218 487 9 120 51 312 96 447 38 113 123 293 155 329 8 8 14
19 14 23 0 4 4 12 10 19 145 180 206 238 335 321 107 68 273 134 397 157 58
11 71 10 129 -9 141 -46 436 -107 552 -114 46 -3 55 -14 167 -213 159 -282
231 -509 226 -705 -5 -159 -45 -252 -160 -365 -64 -63 -241 -184 -423 -290
-78 -46 -102 -64 -174 -136 -107 -107 -184 -232 -233 -381 -35 -103 -41 -146
-41 -288 0 -146 6 -184 45 -302 116 -348 425 -602 807 -663 49 -8 213 -9 263
-1 234 36 422 128 580 286 148 147 226 290 271 495 14 65 17 114 14 260 -3 99
-7 198 -10 220 -10 76 -36 256 -41 278 -2 12 -9 49 -15 82 -20 116 -60 310
-69 340 -5 17 -11 44 -13 60 -3 17 -25 119 -51 228 -25 109 -48 208 -50 220
-2 12 -12 58 -21 102 -25 116 -37 181 -50 265 -3 19 -7 46 -10 60 -30 169 -26
400 10 486 10 25 21 33 51 39 72 13 358 112 470 162 105 47 112 49 150 38 101
-30 168 -86 205 -170 19 -42 22 -69 23 -170 0 -110 -6 -212 -19 -268 -2 -12
-7 -44 -10 -72 -3 -27 -8 -64 -11 -81 -3 -17 -7 -48 -9 -70 -2 -21 -7 -73 -12
-114 -4 -41 -8 -158 -8 -260 0 -213 14 -287 84 -434 54 -117 102 -186 190
-276 190 -193 444 -299 718 -298 601 2 1065 523 983 1105 -21 149 -78 291
-168 418 -174 246 -457 403 -761 421 -112 7 -146 15 -181 46 -107 95 -139 269
-116 624 3 54 8 110 10 124 3 14 7 52 11 85 19 181 22 194 53 229 38 44 157
213 206 292 37 60 39 62 99 75 286 63 623 -80 991 -421 115 -106 250 -249 332
-350 16 -19 31 -37 34 -40 23 -22 101 -136 124 -180 107 -205 309 -365 551
-435 118 -34 161 -39 310 -40 136 0 201 6 248 24 15 6 27 8 27 6 0 -8 128 43
194 76 372 189 593 614 516 995 -13 66 -54 204 -69 231 -5 10 -20 40 -33 68
-58 126 -215 315 -328 396 -103 74 -266 149 -373 170 -252 51 -472 23 -717
-90 -181 -84 -213 -91 -395 -97 -72 -2 -150 2 -195 11 -163 29 -378 118 -564
233 -148 91 -383 259 -379 271 0 3 4 23 7 43 3 21 10 57 16 81 11 51 17 90 34
247 14 119 14 487 1 612 -7 65 -7 66 25 95 78 70 208 122 432 173 47 11 110
22 140 26 29 3 59 7 66 9 25 9 219 19 347 19 181 0 394 -19 481 -43 33 -8 279
-6 338 3 74 12 151 38 226 77 363 187 518 625 333 940 -189 324 -708 440
-1058 237 -87 -50 -190 -155 -230 -234 -33 -65 -100 -152 -153 -199 -19 -16
-46 -41 -62 -55 -15 -14 -65 -47 -109 -74 -269 -163 -634 -207 -933 -113 l-72
23 -71 139 c-155 306 -325 544 -552 774 -92 92 -94 95 -83 125 16 48 69 120
106 145 60 41 112 53 254 56 156 4 249 14 320 37 188 59 310 130 430 248 127
124 202 244 254 404 33 101 41 156 41 286 0 130 -10 194 -42 290 -50 152 -126
275 -242 391 -310 310 -779 381 -1171 178 -123 -64 -234 -156 -336 -281 -37
-44 -104 -165 -130 -234 -49 -132 -63 -216 -60 -379 3 -145 4 -153 41 -255 61
-169 59 -312 -4 -376 -32 -33 -96 -63 -133 -64 -15 0 -67 18 -115 41 -246 115
-563 211 -813 245 -25 3 -49 8 -54 11 -14 9 -92 182 -125 278 -28 82 -47 163
-66 270 -10 57 -13 292 -4 340 4 22 9 54 12 70 11 67 46 187 74 255 78 188
225 399 316 457 105 66 222 204 278 329 47 104 47 106 58 149 20 79 23 102 26
215 9 266 -87 502 -284 701 -168 169 -413 281 -631 288 -36 1 -77 4 -92 5 -15
2 -29 2 -30 1z"/>
</g>
</svg>
